# xmcd
#
# Track frame offsets:
#	150
#	10495
#	22368
#	33118
#	43631
#	54665
#	65754
#	74535
#	86679
#	95444
#
# Disc length: 1433 seconds
#
# Revision: 1
# Processed by: cddbd v1.5.2PL0 Copyright (c) Steve Scherf et al.
# Submitted via: audiograbber 1.83.01
#
DISCID=8c05970a
DTITLE=Waylon Jennings - Good Old Country
DYEAR=2004
DGENRE=Country
TTITLE0=White Lightnin'
TTITLE1=Crying
TTITLE2=Burning Memories
TTITLE3=Money (That's What I Want)
TTITLE4=Dream Baby
TTITLE5=Big Mamou
TTITLE6=Love's Gonna Live Here
TTITLE7=Don't think Twice, It's Alright
TTITLE8=Abilene
TTITLE9=Sally Was A Good Old Girl
EXTD=
EXTT0=
EXTT1=
EXTT2=
EXTT3=
EXTT4=
EXTT5=
EXTT6=
EXTT7=
EXTT8=
EXTT9=
PLAYORDER=
